<svg width="100%" height="100%" viewBox="0 0 96 96" fill="none" xmlns="http://www.w3.org/2000/svg" aria-hidden="true">
  <path d="M48 16 C38 14 30 18 26 26 C18 28 14 36 18 44 C12 48 14 58 22 62 C22 72 32 78 44 76 C46 80 52 80 54 76 C64 78 74 72 74 62 C82 58 84 48 78 44 C82 36 76 28 70 26 C66 18 58 14 48 16 Z" stroke="currentColor" stroke-width="2.6" stroke-linejoin="round" fill="none"/>
  <path d="M48 19 V74" stroke="currentColor" stroke-width="1.4" stroke-linecap="round" opacity="0.36"/>
  <path d="M28 38 Q34 42 28 46" stroke="currentColor" stroke-width="1.3" stroke-linecap="round" opacity="0.34" fill="none"/>
  <path d="M68 38 Q62 42 68 46" stroke="currentColor" stroke-width="1.3" stroke-linecap="round" opacity="0.34" fill="none"/>
  <g stroke="currentColor" stroke-width="1.4" stroke-linecap="round" opacity="0.55" fill="none">
    <path d="M38 36L48 42"/>
    <path d="M48 42L58 36"/>
    <path d="M38 36L34 50"/>
    <path d="M58 36L62 50"/>
    <path d="M48 42L48 56"/>
    <path d="M34 50L48 56"/>
    <path d="M48 56L62 50"/>
    <path d="M48 56L40 66"/>
    <path d="M48 56L56 66"/>
  </g>
  <circle cx="38" cy="36" r="2.6" fill="currentColor"/>
  <circle cx="48" cy="42" r="3" fill="currentColor"/>
  <circle cx="58" cy="36" r="2.6" fill="currentColor"/>
  <circle cx="34" cy="50" r="2.4" fill="currentColor"/>
  <circle cx="48" cy="56" r="2.8" fill="currentColor"/>
  <circle cx="62" cy="50" r="2.4" fill="currentColor"/>
  <circle cx="40" cy="66" r="2.4" fill="currentColor"/>
  <circle cx="56" cy="66" r="2.4" fill="currentColor"/>
</svg>
